<svg xmlns="http://www.w3.org/2000/svg" class="icon icon-tabler icon-tabler-map-pin" width="52" height="52" viewBox="0 0 24 24" stroke-width="2" stroke="#000000" fill="none" stroke-linecap="round" stroke-linejoin="round">
  <path stroke="none" d="M0 0h24v24H0z" fill="none"/>
  <circle cx="12" cy="11" r="3" />
  <path d="M17.657 16.657l-4.243 4.243a2 2 0 0 1 -2.827 0l-4.244 -4.243a8 8 0 1 1 11.314 0z" />
</svg>


<!-- JS-->
<svg xmlns="http://www.w3.org/2000/svg" class="icon icon-tabler icon-tabler-brand-javascript" width="60" height="60" viewBox="0 0 24 24" stroke-width="2" stroke="#000000" fill="none" stroke-linecap="round" stroke-linejoin="round">
  <path stroke="none" d="M0 0h24v24H0z" fill="none"/>
  <path d="M20 4l-2 14.5l-6 2l-6 -2l-2 -14.5z" />
  <path d="M7.5 8h3v8l-2 -1" />
  <path d="M16.5 8h-2.5a0.5 .5 0 0 0 -.5 .5v3a0.5 .5 0 0 0 .5 .5h1.423a0.5 .5 0 0 1 .495 .57l-.418 2.93l-2 .5" />
</svg>
<!--HTML-->
<svg xmlns="http://www.w3.org/2000/svg" class="icon icon-tabler icon-tabler-brand-html5" width="60" height="60" viewBox="0 0 24 24" stroke-width="2" stroke="#000000" fill="none" stroke-linecap="round" stroke-linejoin="round">
  <path stroke="none" d="M0 0h24v24H0z" fill="none"/>
  <path d="M20 4l-2 14.5l-6 2l-6 -2l-2 -14.5z" />
  <path d="M15.5 8h-7l.5 4h6l-.5 3.5l-2.5 .75l-2.5 -.75l-.1 -.5" />
</svg>
<!--CSS-->
<svg xmlns="http://www.w3.org/2000/svg" class="icon icon-tabler icon-tabler-brand-css3" width="60" height="60" viewBox="0 0 24 24" stroke-width="2" stroke="#000000" fill="none" stroke-linecap="round" stroke-linejoin="round">
  <path stroke="none" d="M0 0h24v24H0z" fill="none"/>
  <path d="M20 4l-2 14.5l-6 2l-6 -2l-2 -14.5z" />
  <path d="M8.5 8h7l-4.5 4h4l-.5 3.5l-2.5 .75l-2.5 -.75l-.1 -.5" />
</svg>

<!--google-->
<svg xmlns="http://www.w3.org/2000/svg" class="icon icon-tabler icon-tabler-brand-google" width="60" height="60" viewBox="0 0 24 24" stroke-width="2" stroke="#000000" fill="none" stroke-linecap="round" stroke-linejoin="round">
  <path stroke="none" d="M0 0h24v24H0z" fill="none"/>
  <path d="M17.788 5.108a9 9 0 1 0 3.212 6.892h-8" />
</svg>